<svg width="24" height="24" viewBox="0 0 24 24" fill="none" xmlns="http://www.w3.org/2000/svg">
<path d="M15.1111 3H6.55556C6.143 3 5.74733 3.21071 5.45561 3.58579C5.16389 3.96086 5 4.46957 5 5V19C5 19.5304 5.16389 20.0391 5.45561 20.4142C5.74733 20.7893 6.143 21 6.55556 21H17.4444C17.857 21 18.2527 20.7893 18.5444 20.4142C18.8361 20.0391 19 19.5304 19 19V8L15.1111 3Z" stroke="#2C5AA0" stroke-width="1.5" stroke-linecap="round" stroke-linejoin="round"/>
<path d="M14 3V7C14 7.53043 14.1756 8.03914 14.4882 8.41421C14.8007 8.78929 15.2246 9 15.6667 9H19" stroke="#2C5AA0" stroke-width="1.5" stroke-linecap="round" stroke-linejoin="round"/>
</svg>
