<svg width="134" height="47" viewBox="0 0 134 47" fill="none" xmlns="http://www.w3.org/2000/svg">
<path d="M1.28 15.672H4.16C4.384 18.68 6.72 20.664 10.144 20.664C13.152 20.664 15.296 19.288 15.296 16.856C15.296 14.072 12.544 13.496 9.152 12.92C5.536 12.312 1.824 11.128 1.824 6.776C1.824 2.968 4.928 0.407999 9.472 0.407999C14.464 0.407999 17.536 3.192 17.792 7.224H14.912C14.592 4.632 12.512 2.936 9.472 2.936C6.56 2.936 4.608 4.216 4.608 6.616C4.608 9.304 7.328 9.848 10.688 10.424C14.336 11.032 18.08 12.248 18.08 16.6C18.08 20.472 14.816 23.192 10.112 23.192C4.64 23.192 1.44 20.088 1.28 15.672ZM34.3815 20.6H35.2135V23H33.7735C31.5975 23 30.8615 22.072 30.8295 20.472C29.8055 21.944 28.1735 23.192 25.3575 23.192C21.7735 23.192 19.3415 21.4 19.3415 18.424C19.3415 15.16 21.6135 13.336 25.9015 13.336H30.7015V12.216C30.7015 10.104 29.1975 8.824 26.6375 8.824C24.3335 8.824 22.7975 9.912 22.4775 11.576H19.8535C20.2375 8.376 22.8295 6.488 26.7655 6.488C30.9255 6.488 33.3255 8.568 33.3255 12.376V19.512C33.3255 20.376 33.6455 20.6 34.3815 20.6ZM30.7015 16.344V15.544H25.6455C23.3095 15.544 21.9975 16.408 21.9975 18.264C21.9975 19.864 23.3735 20.952 25.5495 20.952C28.8135 20.952 30.7015 19.064 30.7015 16.344ZM34.2227 9.08V6.68H37.1667V4.856C37.1667 1.976 38.3827 0.599998 41.4227 0.599998H44.3987V3H41.5827C40.2707 3 39.7907 3.544 39.7907 4.792V6.68H44.3987V9.08H39.7907V23H37.1667V9.08H34.2227ZM51.7845 23.192C46.8885 23.192 43.6885 19.832 43.6885 14.84C43.6885 9.88 46.8245 6.488 51.4325 6.488C56.0405 6.488 59.0485 9.4 59.1765 14.232C59.1765 14.584 59.1445 14.968 59.1125 15.352H46.4405V15.576C46.5365 18.68 48.4885 20.856 51.5925 20.856C53.8965 20.856 55.6885 19.64 56.2325 17.528H58.8885C58.2485 20.792 55.5605 23.192 51.7845 23.192ZM46.6005 13.176H56.3605C56.1045 10.36 54.1845 8.792 51.4645 8.792C49.0645 8.792 46.8565 10.52 46.6005 13.176Z" fill="white"/>
<path d="M70.9068 23.192C64.4748 23.192 60.4428 18.648 60.4428 11.8C60.4428 5.016 64.6348 0.407999 71.1308 0.407999C76.0908 0.407999 79.7068 3.288 80.5388 7.928H77.5948C76.7308 4.824 74.3628 2.968 71.0028 2.968C66.2988 2.968 63.2908 6.616 63.2908 11.8C63.2908 16.952 66.1708 20.632 70.8748 20.632C74.3308 20.632 76.7308 18.808 77.5628 15.672H80.5068C79.6748 20.312 75.9628 23.192 70.9068 23.192ZM89.7245 23.192C84.9565 23.192 81.6285 19.8 81.6285 14.84C81.6285 9.88 84.9565 6.488 89.7245 6.488C94.4925 6.488 97.8205 9.88 97.8205 14.84C97.8205 19.8 94.4925 23.192 89.7245 23.192ZM89.7245 20.856C92.9565 20.856 95.1325 18.328 95.1325 14.84C95.1325 11.352 92.9565 8.824 89.7245 8.824C86.4925 8.824 84.3165 11.352 84.3165 14.84C84.3165 18.328 86.4925 20.856 89.7245 20.856ZM112.414 9.176V0.599998H115.038V23H112.766L112.414 20.376C111.326 21.88 109.566 23.192 106.814 23.192C102.301 23.192 98.9735 20.152 98.9735 14.84C98.9735 9.848 102.301 6.488 106.814 6.488C109.566 6.488 111.422 7.608 112.414 9.176ZM107.069 20.856C110.27 20.856 112.446 18.392 112.446 14.904C112.446 11.32 110.27 8.824 107.069 8.824C103.838 8.824 101.661 11.288 101.661 14.84C101.661 18.392 103.838 20.856 107.069 20.856ZM124.852 23.192C119.956 23.192 116.756 19.832 116.756 14.84C116.756 9.88 119.892 6.488 124.5 6.488C129.108 6.488 132.116 9.4 132.244 14.232C132.244 14.584 132.212 14.968 132.18 15.352H119.508V15.576C119.604 18.68 121.556 20.856 124.66 20.856C126.964 20.856 128.756 19.64 129.3 17.528H131.956C131.316 20.792 128.628 23.192 124.852 23.192ZM119.668 13.176H129.428C129.172 10.36 127.252 8.792 124.532 8.792C122.132 8.792 119.924 10.52 119.668 13.176Z" fill="#2C5AA0"/>
<path d="M13.786 43.88H14.542V45H13.646C12.904 45 12.512 44.804 12.162 44.328L12.064 44.188C11.308 44.762 10.342 45.084 9.264 45.084C6.506 45.084 4.588 42.984 4.588 40.1C4.588 37.216 6.506 35.116 9.264 35.116C12.022 35.116 13.94 37.216 13.94 40.1C13.94 41.402 13.548 42.536 12.862 43.404C13.128 43.754 13.366 43.88 13.786 43.88ZM9.264 43.964C10.09 43.964 10.804 43.698 11.364 43.236L11.098 42.872C10.832 42.522 10.594 42.382 10.244 42.382H9.418V41.262H10.44C11.098 41.262 11.448 41.472 11.798 41.948L12.106 42.368C12.484 41.752 12.694 40.968 12.694 40.1C12.694 37.846 11.308 36.236 9.264 36.236C7.22 36.236 5.834 37.846 5.834 40.1C5.834 42.354 7.22 43.964 9.264 43.964ZM17.354 45V35.2H21.106C23.066 35.2 24.368 36.376 24.368 38.21C24.368 39.582 23.542 40.646 22.282 40.996L24.48 45H23.108L21.036 41.234H18.572V45H17.354ZM21.022 36.32H18.572V40.114H21.008C22.296 40.114 23.122 39.358 23.122 38.21C23.122 37.062 22.296 36.32 21.022 36.32ZM31.6511 41.5H26.9891V40.534H31.6511V41.5ZM36.1244 45H34.9764V37.86H36.1244V40.842H37.6504L39.8764 37.86H41.2064L38.6024 41.29L41.4304 45H40.0444L37.6644 41.892H36.1244V45ZM47.0317 45.084C44.9457 45.084 43.4897 43.6 43.4897 41.43C43.4897 39.26 44.9457 37.776 47.0317 37.776C49.1177 37.776 50.5737 39.26 50.5737 41.43C50.5737 43.6 49.1177 45.084 47.0317 45.084ZM47.0317 44.062C48.4457 44.062 49.3977 42.956 49.3977 41.43C49.3977 39.904 48.4457 38.798 47.0317 38.798C45.6177 38.798 44.6657 39.904 44.6657 41.43C44.6657 42.956 45.6177 44.062 47.0317 44.062ZM59.8054 37.86V43.95H60.9394V46.89H59.7914V45H53.9674V46.89H52.8194V43.95H53.5474C54.0654 43.558 54.3454 43.054 54.3454 40.842V37.86H59.8054ZM54.9334 43.95H58.6574V38.91H55.4654V40.968C55.4654 42.606 55.2834 43.404 54.9334 43.95ZM66.6603 45H63.6923V37.86H64.8403V40.184H66.6603C68.4383 40.184 69.4603 41.066 69.4603 42.592C69.4603 44.104 68.4383 45 66.6603 45ZM71.7703 45H70.6223V37.86H71.7703V45ZM64.8403 41.164V44.02H66.4783C67.6543 44.02 68.2983 43.502 68.2983 42.592C68.2983 41.654 67.6543 41.164 66.4783 41.164H64.8403ZM81.6567 45H80.6487V37.86H81.7687V43.264L86.0247 37.86H87.0327V45H85.9127V39.582L81.6567 45ZM100.292 45.084C97.4778 45.084 95.7138 43.096 95.7138 40.1C95.7138 37.132 97.5478 35.116 100.39 35.116C102.56 35.116 104.142 36.376 104.506 38.406H103.218C102.84 37.048 101.804 36.236 100.334 36.236C98.2758 36.236 96.9598 37.832 96.9598 40.1C96.9598 42.354 98.2198 43.964 100.278 43.964C101.79 43.964 102.84 43.166 103.204 41.794H104.492C104.128 43.824 102.504 45.084 100.292 45.084ZM107.783 45V35.2H111.535C113.495 35.2 114.797 36.376 114.797 38.21C114.797 39.582 113.971 40.646 112.711 40.996L114.909 45H113.537L111.465 41.234H109.001V45H107.783ZM111.451 36.32H109.001V40.114H111.437C112.725 40.114 113.551 39.358 113.551 38.21C113.551 37.062 112.725 36.32 111.451 36.32ZM118.161 45V35.2H119.701L123.173 43.334L126.603 35.2H128.115V45H126.925V37.272L123.677 45H122.599L119.351 37.272V45H118.161Z" fill="white" fill-opacity="0.3"/>
</svg>
