<svg width="200" height="60" viewBox="0 0 200 60" fill="none" xmlns="http://www.w3.org/2000/svg">
<path d="M1.92 23.008H6.24C6.576 27.52 10.08 30.496 15.216 30.496C19.728 30.496 22.944 28.432 22.944 24.784C22.944 20.608 18.816 19.744 13.728 18.88C8.304 17.968 2.736 16.192 2.736 9.664C2.736 3.952 7.392 0.111999 14.208 0.111999C21.696 0.111999 26.304 4.288 26.688 10.336H22.368C21.888 6.448 18.768 3.904 14.208 3.904C9.84 3.904 6.912 5.824 6.912 9.424C6.912 13.456 10.992 14.272 16.032 15.136C21.504 16.048 27.12 17.872 27.12 24.4C27.12 30.208 22.224 34.288 15.168 34.288C6.96 34.288 2.16 29.632 1.92 23.008ZM51.5723 30.4H52.8203V34H50.6603C47.3963 34 46.2923 32.608 46.2443 30.208C44.7083 32.416 42.2603 34.288 38.0363 34.288C32.6603 34.288 29.0122 31.6 29.0122 27.136C29.0122 22.24 32.4203 19.504 38.8523 19.504H46.0523V17.824C46.0523 14.656 43.7963 12.736 39.9563 12.736C36.5003 12.736 34.1963 14.368 33.7163 16.864H29.7803C30.3563 12.064 34.2443 9.232 40.1483 9.232C46.3883 9.232 49.9883 12.352 49.9883 18.064V28.768C49.9883 30.064 50.4683 30.4 51.5723 30.4ZM46.0523 24.016V22.816H38.4683C34.9643 22.816 32.9963 24.112 32.9963 26.896C32.9963 29.296 35.0603 30.928 38.3243 30.928C43.2203 30.928 46.0523 28.096 46.0523 24.016ZM51.3341 13.12V9.52H55.7501V6.784C55.7501 2.464 57.5741 0.399998 62.1341 0.399998H66.5981V4H62.3741C60.4061 4 59.6861 4.816 59.6861 6.688V9.52H66.5981V13.12H59.6861V34H55.7501V13.12H51.3341ZM77.6768 34.288C70.3328 34.288 65.5328 29.248 65.5328 21.76C65.5328 14.32 70.2368 9.232 77.1488 9.232C84.0608 9.232 88.5728 13.6 88.7648 20.848C88.7648 21.376 88.7168 21.952 88.6688 22.528H69.6608V22.864C69.8048 27.52 72.7328 30.784 77.3888 30.784C80.8448 30.784 83.5328 28.96 84.3488 25.792H88.3328C87.3728 30.688 83.3408 34.288 77.6768 34.288ZM69.9008 19.264H84.5408C84.1568 15.04 81.2768 12.688 77.1968 12.688C73.5968 12.688 70.2848 15.28 69.9008 19.264Z" fill="#1E1E1E"/>
<path d="M106.36 34.288C96.7121 34.288 90.6641 27.472 90.6641 17.2C90.6641 7.024 96.9521 0.111999 106.696 0.111999C114.136 0.111999 119.56 4.432 120.808 11.392H116.392C115.096 6.736 111.544 3.952 106.504 3.952C99.4481 3.952 94.9361 9.424 94.9361 17.2C94.9361 24.928 99.2561 30.448 106.312 30.448C111.496 30.448 115.096 27.712 116.344 23.008H120.76C119.512 29.968 113.944 34.288 106.36 34.288ZM134.587 34.288C127.435 34.288 122.443 29.2 122.443 21.76C122.443 14.32 127.435 9.232 134.587 9.232C141.739 9.232 146.731 14.32 146.731 21.76C146.731 29.2 141.739 34.288 134.587 34.288ZM134.587 30.784C139.435 30.784 142.699 26.992 142.699 21.76C142.699 16.528 139.435 12.736 134.587 12.736C129.739 12.736 126.475 16.528 126.475 21.76C126.475 26.992 129.739 30.784 134.587 30.784ZM168.62 13.264V0.399998H172.556V34H169.148L168.62 30.064C166.988 32.32 164.348 34.288 160.22 34.288C153.452 34.288 148.46 29.728 148.46 21.76C148.46 14.272 153.452 9.232 160.22 9.232C164.348 9.232 167.132 10.912 168.62 13.264ZM160.604 30.784C165.404 30.784 168.668 27.088 168.668 21.856C168.668 16.48 165.404 12.736 160.604 12.736C155.756 12.736 152.492 16.432 152.492 21.76C152.492 27.088 155.756 30.784 160.604 30.784ZM187.278 34.288C179.934 34.288 175.134 29.248 175.134 21.76C175.134 14.32 179.838 9.232 186.75 9.232C193.662 9.232 198.174 13.6 198.366 20.848C198.366 21.376 198.318 21.952 198.27 22.528H179.262V22.864C179.406 27.52 182.334 30.784 186.99 30.784C190.446 30.784 193.134 28.96 193.95 25.792H197.934C196.974 30.688 192.942 34.288 187.278 34.288ZM179.502 19.264H194.142C193.758 15.04 190.878 12.688 186.798 12.688C183.198 12.688 179.886 15.28 179.502 19.264Z" fill="#2C5AA0"/>
<path d="M37.184 55.72H38.048V57H37.024C36.176 57 35.728 56.776 35.328 56.232L35.216 56.072C34.352 56.728 33.248 57.096 32.016 57.096C28.864 57.096 26.672 54.696 26.672 51.4C26.672 48.104 28.864 45.704 32.016 45.704C35.168 45.704 37.36 48.104 37.36 51.4C37.36 52.888 36.912 54.184 36.128 55.176C36.432 55.576 36.704 55.72 37.184 55.72ZM32.016 55.816C32.96 55.816 33.776 55.512 34.416 54.984L34.112 54.568C33.808 54.168 33.536 54.008 33.136 54.008H32.192V52.728H33.36C34.112 52.728 34.512 52.968 34.912 53.512L35.264 53.992C35.696 53.288 35.936 52.392 35.936 51.4C35.936 48.824 34.352 46.984 32.016 46.984C29.68 46.984 28.096 48.824 28.096 51.4C28.096 53.976 29.68 55.816 32.016 55.816ZM41.5817 57V45.8H45.8698C48.1097 45.8 49.5977 47.144 49.5977 49.24C49.5977 50.808 48.6538 52.024 47.2137 52.424L49.7257 57H48.1578L45.7898 52.696H42.9737V57H41.5817ZM45.7737 47.08H42.9737V51.416H45.7578C47.2298 51.416 48.1737 50.552 48.1737 49.24C48.1737 47.928 47.2298 47.08 45.7737 47.08ZM58.2412 53H52.9132V51.896H58.2412V53ZM63.6736 57H62.3616V48.84H63.6736V52.248H65.4176L67.9616 48.84H69.4816L66.5056 52.76L69.7376 57H68.1536L65.4336 53.448H63.6736V57ZM76.4591 57.096C74.0751 57.096 72.4111 55.4 72.4111 52.92C72.4111 50.44 74.0751 48.744 76.4591 48.744C78.8431 48.744 80.5071 50.44 80.5071 52.92C80.5071 55.4 78.8431 57.096 76.4591 57.096ZM76.4591 55.928C78.0751 55.928 79.1631 54.664 79.1631 52.92C79.1631 51.176 78.0751 49.912 76.4591 49.912C74.8431 49.912 73.7551 51.176 73.7551 52.92C73.7551 54.664 74.8431 55.928 76.4591 55.928ZM91.3776 48.84V55.8H92.6736V59.16H91.3616V57H84.7056V59.16H83.3936V55.8H84.2256C84.8176 55.352 85.1376 54.776 85.1376 52.248V48.84H91.3776ZM85.8096 55.8H90.0656V50.04H86.4176V52.392C86.4176 54.264 86.2096 55.176 85.8096 55.8ZM99.5318 57H96.1398V48.84H97.4518V51.496H99.5318C101.564 51.496 102.732 52.504 102.732 54.248C102.732 55.976 101.564 57 99.5318 57ZM105.372 57H104.06V48.84H105.372V57ZM97.4518 52.616V55.88H99.3238C100.668 55.88 101.404 55.288 101.404 54.248C101.404 53.176 100.668 52.616 99.3238 52.616H97.4518ZM117.31 57H116.158V48.84H117.438V55.016L122.302 48.84H123.454V57H122.174V50.808L117.31 57ZM139.248 57.096C136.032 57.096 134.016 54.824 134.016 51.4C134.016 48.008 136.112 45.704 139.36 45.704C141.84 45.704 143.648 47.144 144.064 49.464H142.592C142.16 47.912 140.976 46.984 139.296 46.984C136.944 46.984 135.44 48.808 135.44 51.4C135.44 53.976 136.88 55.816 139.232 55.816C140.96 55.816 142.16 54.904 142.576 53.336H144.048C143.632 55.656 141.776 57.096 139.248 57.096ZM148.129 57V45.8H152.417C154.657 45.8 156.145 47.144 156.145 49.24C156.145 50.808 155.201 52.024 153.761 52.424L156.273 57H154.705L152.337 52.696H149.521V57H148.129ZM152.321 47.08H149.521V51.416H152.305C153.777 51.416 154.721 50.552 154.721 49.24C154.721 47.928 153.777 47.08 152.321 47.08ZM160.31 57V45.8H162.07L166.038 55.096L169.958 45.8H171.686V57H170.326V48.168L166.614 57H165.382L161.67 48.168V57H160.31Z" fill="#1E1E1E" fill-opacity="0.3"/>
</svg>
